Coordinates
version=1
nRows=17
nColumns=36
inDegrees=yes

Units are S.I. units (second, meters, Newtons, ...)
If the header above contains a line with 'inDegrees', this indicates whether rotational values are in degrees (yes) or radians (no).

endheader
time	pelvis_tilt	pelvis_list	pelvis_rotation	pelvis_tx	pelvis_ty	pelvis_tz	hip_flexion_r	hip_adduction_r	hip_rotation_r	knee_angle_r	knee_angle_r_beta	ankle_angle_r	subtalar_angle_r	mtp_angle_r	hip_flexion_l	hip_adduction_l	hip_rotation_l	knee_angle_l	knee_angle_l_beta	ankle_angle_l	subtalar_angle_l	mtp_angle_l	lumbar_extension	lumbar_bending	lumbar_rotation	arm_flex_r	arm_add_r	arm_rot_r	elbow_flex_r	pro_sup_r	arm_flex_l	arm_add_l	arm_rot_l	elbow_flex_l	pro_sup_l
      2.82083330	     -5.72378083	      2.26736394	     -0.92715700	     -0.13706536	      1.19099078	     -0.04363569	     25.50881490	     -6.60854651	     -9.15059065	      6.80679489	      0.11880098	    -26.79464933	     -3.84083715	     -7.49999987	     25.28463647	     -7.59472087	     -7.48256166	      7.46250476	      0.13024528	    -25.59904579	     -0.04181567	     -7.49999987	    -16.14940089	     -0.56862916	     -0.50256932	     49.93557543	    -26.13194603	     26.44994057	    112.35176707	     90.49297256	     57.36169452	    -41.64302771	     21.30291307	    110.40549885	     73.61730078
      2.82500000	     -5.39432754	      2.06421478	     -0.77819310	     -0.13595493	      1.18390639	     -0.04382955	     25.52589598	     -6.51474424	     -9.05408234	      6.71925910	      0.11727319	    -26.85894360	     -4.01125251	     -7.49999987	     25.81587545	     -7.83901616	     -7.02312725	      8.17896225	      0.14274982	    -26.36970282	     -0.22602946	     -7.49999987	    -17.05118031	     -0.46356023	     -0.56453220	     48.89146442	    -26.36084938	     26.04730740	    112.67813474	     88.72659559	     56.60297796	    -41.34601965	     20.98509571	    110.29575007	     72.67776684
      2.82916670	     -5.20483933	      1.97813469	     -0.19988911	     -0.12996191	      1.16931956	     -0.04841833	     25.53047746	     -6.84464038	     -9.22202240	      6.29031110	      0.10978664	    -27.66222878	     -5.00712460	     -7.49999987	     26.08519398	     -7.63218957	     -6.54908657	      8.20321000	      0.14317302	    -26.47338138	     -0.05996420	     -7.49999987	    -17.74069268	     -0.14149133	     -0.77985251	     48.20962782	    -27.04449126	     25.92549650	    112.27188773	     87.81677023	     55.78168020	    -40.85417563	     20.98870724	    110.60003870	     72.28598874
      2.83333330	     -4.91036980	      2.01886742	      0.37346060	     -0.11932207	      1.15528282	     -0.04933169	     25.12115180	     -7.15740405	     -8.68587017	      5.83806384	      0.10189344	    -29.53599335	     -6.01233567	     -7.49999987	     26.23476853	     -7.35832969	     -6.40212117	      8.84748859	      0.15441781	    -26.28401722	      0.58975687	     -7.49999987	    -17.97614106	      0.15314227	     -1.73657380	     47.58072238	    -26.49426014	     26.34788198	    111.33268681	     90.64550625	     53.74470363	    -41.27656855	     19.44156351	    111.25065862	     72.90402198
      2.83750000	     -4.55515506	      1.67995504	      0.91917978	     -0.11451692	      1.15135252	     -0.05540891	     24.65476379	     -7.18139470	     -8.81882283	      5.82126322	      0.10160021	    -31.67131174	     -6.73546501	     -7.49999987	     26.36428852	     -7.39534344	     -6.28677343	      9.53263462	      0.16637586	    -26.06967237	      0.95552483	     -7.49999987	    -18.57128719	      0.97014452	     -1.91149429	     45.75275223	    -27.19626305	     25.34962081	    111.17027084	     90.20613372	     51.44464417	    -40.65313053	     19.19204322	    111.48423532	     72.69881551
      2.84166670	     -4.06288031	      1.82702286	      1.61007571	     -0.10468633	      1.13830915	     -0.06546202	     24.51052378	     -8.08461090	     -9.78519358	      6.41335387	      0.11193414	    -33.15573027	     -7.24415587	     -7.49999987	     26.36395501	     -6.77038147	     -6.57288731	     10.56766282	      0.18444051	    -25.08765198	      1.66404025	     -7.49999987	    -19.01901916	      1.46817974	     -2.33028686	     43.65353895	    -28.00784579	     24.39460718	    110.80205202	     88.05541856	     49.72613735	    -39.74696932	     19.19064884	    111.85522775	     71.94392649
      2.84583330	     -3.52694313	      1.87207828	      2.01117218	     -0.10407073	      1.12800044	     -0.06438685	     24.60663800	     -8.64080488	    -10.10012545	      7.36770528	      0.12859072	    -33.39823385	     -7.41297907	     -7.49999987	     26.46098148	     -6.62180181	     -6.35631471	     11.26855504	      0.19667339	    -24.73361743	      0.68025697	     -7.49999987	    -19.73516062	      1.63028899	     -2.50130377	     42.53414559	    -28.28455392	     24.22943449	    110.85487093	     86.51846721	     48.03404228	    -38.93718350	     19.67757428	    111.75948408	     71.39190291
      2.85000000	     -3.07494226	      1.81140190	      1.40981908	     -0.09325184	      1.11250121	     -0.06334451	     25.15735398	     -8.58156896	    -10.76155413	      8.67576118	      0.15142060	    -33.34344269	     -7.30105307	     -7.49999987	     26.30648167	     -6.81424368	     -5.50619823	     11.50249659	      0.20075644	    -24.79801479	     -0.82759358	     -7.49999987	    -20.09843976	      1.78443743	     -2.00254928	     41.23108352	    -28.92470751	     23.67372064	    110.61638857	     87.02685673	     45.76103319	    -38.47083444	     18.74867169	    111.83101594	     71.62759439
      2.85416670	     -2.63467757	      1.44696423	      1.01042246	     -0.08406634	      1.10337094	     -0.06294417	     25.08112436	     -8.24752133	    -11.08143451	      9.73884212	      0.16997486	    -33.93046154	     -7.25626988	     -7.49999987	     26.09191477	     -7.12476207	     -4.45678335	     11.66995770	      0.20367919	    -25.30407659	     -2.08517720	     -7.49999987	    -20.52424204	      2.49958155	     -2.07809508	     40.21595086	    -28.89548357	     23.64906663	    110.26285507	     91.02293789	     42.28639386	    -38.84968295	     16.43431561	    113.03334721	     73.86959536
      2.85833330	     -2.40151092	      1.31784375	      0.83684940	     -0.07847877	      1.09874329	     -0.05794121	     24.74221302	     -8.02235020	    -11.46502760	      9.36421407	      0.16343637	    -34.12287876	     -5.51606583	     -7.49999987	     25.92119737	     -7.42237209	     -4.59656216	     11.52802538	      0.20120200	    -26.86272586	     -3.23643175	     -7.49999987	    -21.01321474	      2.71664059	     -1.39868688	     37.98705449	    -29.01165292	     21.92089504	    111.11665756	     90.23482363	     39.41013048	    -37.96362259	     15.00003179	    112.64974652	     73.49354588
      2.86250000	     -1.91278284	      1.52079270	      0.75381178	     -0.07392881	      1.07813280	     -0.05312685	     24.58899739	     -7.97981929	    -10.57369968	      9.54758328	      0.16663676	    -33.77946967	     -5.51217032	     -7.49999987	     25.56987367	     -7.48378840	     -4.81350296	     11.53581625	      0.20133798	    -28.50331489	     -5.05438026	     -7.49999987	    -21.76035016	      2.19941863	     -1.14451299	     35.95671671	    -28.93865928	     20.99672036	    111.32104689	     89.47466901	     38.14029258	    -37.85253828	     13.48859319	    112.16456898	     73.12514250
      2.86666670	     -1.99936147	      1.58300500	      0.69781913	     -0.06301646	      1.06353450	     -0.04462683	     24.72459445	     -7.51114121	     -9.32705265	      9.78761999	      0.17082619	    -33.89626230	     -6.41896261	     -7.49999987	     25.63151805	     -7.95162491	     -4.52278539	     11.80731681	      0.20607655	    -29.83155491	     -5.74009906	     -7.49999987	    -21.83673410	      1.55280392	     -1.01197257	     33.39049200	    -28.45161872	     19.49464415	    112.13693420	     88.18292617	     36.27328457	    -38.28012484	     12.09132617	    112.31332581	     72.34238278
      2.87083330	     -1.77711129	      1.41796583	      0.59735928	     -0.05843333	      1.05368580	     -0.05004247	     24.70908676	     -7.26845475	     -7.64516039	     10.03243934	      0.17509910	    -34.17160589	     -6.62790097	     -7.49999987	     25.52514603	     -8.30423369	     -4.73197667	     12.27158790	      0.21417961	    -30.53139362	     -5.14368463	     -7.49999987	    -22.18184395	      1.74001703	     -0.34517264	     30.94374593	    -28.53853710	     18.03427282	    112.80337514	     92.40672912	     34.22188093	    -37.52788483	     11.03657424	    112.14112714	     73.83299483
      2.87500000	     -1.44319527	      0.92046621	      0.14999485	     -0.05820640	      1.05001846	     -0.05074567	     25.09337321	     -6.68737216	     -6.37308940	     11.22418515	      0.19589899	    -34.03696783	     -6.88580334	     -7.49999987	     25.92728911	     -8.98277086	     -4.85672464	     13.56323253	      0.23672306	    -30.21438554	     -4.13709980	     -7.49999987	    -23.44421316	      2.19672192	      0.00553855	     29.62541286	    -28.45686124	     17.34812379	    112.73448009	     91.47498964	     31.03280047	    -36.90171871	      9.09539298	    113.13912887	     73.65085675
      2.87916670	     -1.14607716	      0.68689127	     -0.31835769	     -0.05663484	      1.04170083	     -0.05083478	     26.01245442	     -6.57186353	     -6.18520509	     13.05199235	      0.22780024	    -33.71157582	     -7.52812831	     -7.49999987	     26.64233047	     -9.31352004	     -4.28157129	     15.46924761	      0.26998930	    -30.13107861	     -3.35252252	     -7.49999987	    -24.87438417	      2.45169220	     -0.61367692	     29.33559664	    -27.45902919	     17.88423696	    112.80398084	     93.30536158	     27.25943715	    -37.03845917	      5.64022148	    114.36512691	     74.24191743
      2.88333330	     -0.62625298	      0.36580013	     -0.46911158	     -0.05508102	      1.02834836	     -0.05071169	     27.16278346	     -6.41117268	     -6.32903522	     16.03891603	      0.27993189	    -31.34934040	     -8.60351657	     -7.49999987	     27.68905563	     -9.60533153	     -4.20373547	     17.91469036	      0.31267033	    -29.69573036	     -4.71250968	     -7.49999987	    -26.61041944	      2.60757684	     -0.25405269	     28.13291691	    -27.39247046	     17.10973239	    112.58305362	     90.97414837	     25.68584454	    -36.75198290	      4.54039836	    114.64592109	     73.38802329
      2.88750000	     -0.15877903	      0.29283364	     -0.53145293	     -0.04577525	      1.00970594	     -0.05096941	     28.09868367	     -6.41125003	     -6.07987055	     19.32266973	      0.33724421	    -28.18308985	    -11.70570611	     -7.49999987	     28.25018619	     -9.61784119	     -3.43003314	     19.76548179	      0.34497274	    -28.76301727	     -5.80579421	     -7.49999987	    -27.72433017	      2.56767551	     -0.14217133	     26.85808052	    -27.44009985	     17.06525608	    113.08498974	     88.12429833	     23.74667115	    -36.39519575	      4.21179413	    114.77803504	     72.34462026
